<?xml version="1.0" encoding="utf-8"?>
<!-- Generator: Adobe Illustrator 16.0.0, SVG Export Plug-In . SVG Version: 6.00 Build 0)  -->
<!DOCTYPE svg PUBLIC "-//W3C//DTD SVG 1.0//EN" "http://www.w3.org/TR/2001/REC-SVG-20010904/DTD/svg10.dtd">
<svg version="1.0" id="Layer_1" xmlns="http://www.w3.org/2000/svg" xmlns:xlink="http://www.w3.org/1999/xlink" x="0px" y="0px"
	 width="400px" height="400px" viewBox="0 0 400 400" enable-background="new 0 0 400 400" xml:space="preserve">
<g>
	<path fill-rule="evenodd" clip-rule="evenodd" fill="#006633" d="M78.634,296.063v-94.603
		c77.139-39.341,119.742,43.455,76.192,94.753L78.634,296.063z"/>
	<path fill-rule="evenodd" clip-rule="evenodd" fill="#006633" d="M336.96,202.449c-154.738-56.553-97.772,81.219-81.308,93.765
		h81.308v-90.793V202.449z"/>
	<g>
		<path fill="#1D1D1B" d="M56.435,208.489H32.594v-5.247l-2.951,1.909v8.319v3.167v9.951v3.108v10.477v1.902v6.442v3.112v11.891
			v1.916v2.727c-0.523,0.344-0.966,0.573-1.276,0.725c-1.061,0.434-2.123,0.68-3.125,0.68c-0.697,0-1.43-0.138-2.104-0.376
			c-0.716-0.256-1.331-0.68-1.93-1.267c-0.985-0.93-1.525-2.169-1.525-3.685c0-0.772,0.095-1.453,0.249-2.019
			c0.192-0.593,0.444-1.109,0.771-1.653c1.005-1.642,2.471-3.128,4.268-4.554c0.54-0.416,1.312-0.921,2.277-1.496h-1.911
			c-1.005,0.723-1.757,1.306-2.316,1.803c-1.832,1.564-3.263,3.109-4.303,4.683c-0.831,1.267-1.312,2.752-1.312,4.404
			c0,1.183,0.269,2.229,0.753,3.19c0.441,0.93,1.176,1.741,2.198,2.355c0.966,0.604,2.065,0.91,3.243,0.91
			c1.371,0,2.801-0.445,4.267-1.394c0.501-0.249,1.08-0.714,1.777-1.279v3.831v1.912v5.791v3.753v2.468l2.951-1.953V282.5v-3.317
			h10.059v8.704h-7.837c-0.966,0.177-1.718,0.385-2.222,0.595c-1.58,0.642-2.585,1.643-2.991,2.948
			c-0.173,0.498-0.212,0.877-0.212,1.031c0,0.216,0,0.425,0,0.732c0,1.267,0.386,2.268,1.217,3.021
			c0.811,0.723,1.774,1.109,2.876,1.109c0.501,0,0.926-0.071,1.332-0.209c1.892-0.733,3.224-2.297,3.976-4.771
			c0.115-0.378,0.213-0.914,0.327-1.617h3.534v1.95c0.095,0.288,0.193,0.517,0.213,0.654c0.213,0.445,0.521,0.664,0.831,0.664
			c0.269,0,0.521-0.078,0.809-0.258c0.697-0.505,1.524-1.228,2.49-2.156c1.158-1.198,1.698-2.052,1.698-2.625
			c0-0.454-0.192-0.763-0.771-0.933c-0.117-0.059-0.386-0.098-0.791-0.137h-1.544v-8.704h8.667l2.18-2.84H32.594v-3.319v-1.921
			v-1.403h21.583l2.258-2.862H32.594v-3.315v-1.911v-11.934v-3.188v-0.147h9.787c-1.352,0.832-2.333,1.546-2.951,2.177
			c-2.065,1.948-3.148,4.021-3.148,6.23c0,1.939,0.521,3.563,1.545,4.81c1.08,1.319,2.471,2.037,4.228,2.179
			c2.084,0,3.939-0.971,5.54-2.81c1.678-1.773,2.471-3.783,2.471-5.894c0-2.02-0.635-3.793-1.949-5.245
			c-0.386-0.438-1.003-0.923-1.814-1.447h7.954l2.18-2.833H32.594v-3.384v-1.852v-0.753h9.575c0.578-0.131,1.043-0.268,1.37-0.366
			c1.139-0.387,1.989-0.903,2.703-1.634c0.89-0.873,1.563-1.773,1.911-2.702c0.366-0.952,0.54-1.862,0.54-2.883
			c0-1.256-0.269-2.585-1.002-3.959c-0.154-0.478-0.504-0.962-0.926-1.584h-2.068c0.366-0.248,0.717-0.478,0.985-0.674
			c1.217-1.08,2.047-2.209,2.471-3.397c0.405-1.168,0.618-2.633,0.618-4.397c0-0.84-0.271-1.858-0.906-3.188
			c-0.174-0.346-0.387-0.85-0.733-1.412h7.123L56.435,208.489z M37.459,292.074c-0.425,0.891-1.004,1.643-1.814,2.128
			c-0.541,0.307-1.176,0.438-1.893,0.438c-0.771,0-1.446-0.131-1.948-0.536c-0.522-0.327-0.79-0.792-0.79-1.427
			c0-0.554,0.212-1.067,0.674-1.395c0.465-0.366,1.178-0.556,2.123-0.556h4.016C37.731,291.282,37.574,291.738,37.459,292.074z
			 M43.752,247.422c0.54,0.603,1.083,1.247,1.544,1.901c0.733,1.018,1.353,2.098,1.816,3.217c0.425,1.139,0.674,2.107,0.674,3.011
			c0,1.138-0.347,2.009-1.004,2.614c-0.615,0.612-1.601,0.899-2.952,0.899c-1.331,0-2.45-0.444-3.302-1.328
			c-0.851-0.88-1.312-2.029-1.505-3.437c0-0.176,0-0.444,0-0.771c0-1.8,0.733-3.476,2.124-5.01c0.461-0.544,1.139-1.097,2.064-1.731
			C43.464,247.018,43.638,247.213,43.752,247.422z M32.594,227.747v-3.079v-3.011c0.33-0.484,0.618-0.831,0.89-0.988
			c0.792-0.615,1.583-0.942,2.393-0.942c0.772,0,1.41,0.288,1.95,0.834c0.54,0.554,1.158,1.692,1.796,3.354
			c0.154,0.387,0.269,0.753,0.367,1.139c0.059,0.367,0.114,0.654,0.173,1.021c0-0.04,0.039-0.04,0.039-0.04l-7.607,8.691V227.747z
			 M45.046,227.391c1.022,1.753,1.526,3.317,1.526,4.705c0,1.256-0.657,2.087-2.009,2.414c-0.426,0.138-1.1,0.217-1.97,0.217h-7.625
			l8.495-9.543C44.197,226.075,44.717,226.808,45.046,227.391z M45.741,220.996c-0.366,0.851-1.024,1.594-1.911,2.156
			c-0.311,0.219-0.696,0.396-1.197,0.586c-0.134-0.308-0.232-0.586-0.271-0.772c-0.56-1.446-1.021-2.516-1.485-3.278
			c-0.426-0.763-0.985-1.395-1.601-1.81c-0.562-0.415-1.218-0.605-1.911-0.605c-0.504,0-1.043,0.157-1.682,0.386
			c-0.616,0.269-1.352,0.714-2.18,1.267c-0.156,0.141-0.522,0.337-0.909,0.645v-4.921v-2.99v-0.334h10.792
			c0.078,0.106,0.192,0.235,0.213,0.334c0.5,0.673,0.945,1.366,1.312,2.11c0.328,0.684,0.56,1.267,0.772,1.69
			c0.406,1.051,0.618,2.004,0.618,2.952C46.301,219.232,46.128,220.113,45.741,220.996z"/>
		<path fill="#1D1D1B" d="M33.984,153.271l21.427,2.867l2.607-2.529l-23.302-3.119l1.064-5.684l-3.36,1.738l-1.041,4.535
			c-0.658,0-1.139,0-1.564,0.02c-1.063,0.04-2.144,0.173-3.203,0.406c-1.449,0.232-2.801,0.549-4.074,0.926
			c-1.583,0.462-2.82,1.08-3.783,1.757c-1.023,0.782-1.642,1.793-1.835,3.01c-0.252,1.757,0.347,3.05,1.642,3.871
			c0.849,0.461,1.813,0.782,2.818,0.887c1.08,0.164,2.356,0.108,3.803-0.193c0.444-0.085,0.984-0.232,1.678-0.432l0.154-1.217
			c-0.481,0.154-0.789,0.268-1.1,0.327c-0.887,0.183-1.698,0.212-2.49,0.099c-0.308-0.04-0.693-0.119-1.06-0.272
			c-0.387-0.095-0.717-0.252-0.985-0.425c-1.024-0.733-1.449-1.62-1.332-2.693c0.174-1.214,1.061-2.208,2.723-2.886
			c1.58-0.654,3.473-1.109,5.596-1.6c1.024-0.232,2.841-0.387,2.841-0.387c-2.841,16.947-1.564,37.912-1.564,37.912l2.951-1.97
			v-14.594h8.282c-1.1,0.831-1.872,1.544-2.372,2.068c-1.509,1.717-2.281,3.396-2.281,5.035c0,1.856,0.523,3.282,1.604,4.258
			c0.965,0.821,2.163,1.266,3.648,1.266c0.945,0,1.871-0.157,2.723-0.504c1.544-0.617,2.762-1.505,3.608-2.664
			c0.888-1.158,1.273-2.49,1.273-3.908c0-1.226-0.386-2.519-1.214-3.899c-0.271-0.436-0.638-0.975-1.178-1.653h7.567l2.18-2.817
			H43.83c-0.618-0.772-1.083-1.391-1.41-1.803c-0.887-1.342-1.292-2.484-1.292-3.391c0-1.263,0.271-2.123,0.792-2.683
			c0.579-0.54,1.292-0.83,2.218-0.83c0.792,0,1.663,0.231,2.628,0.656c0.635,0.292,1.542,0.871,2.684,1.659
			c0.327,0.212,0.788,0.543,1.35,0.946l2.181-2.287c-0.867-0.625-1.62-1.119-2.181-1.397c-1.72-0.926-3.205-1.505-4.498-1.564
			h-0.618c-1.97,0-3.629,0.57-5.135,1.757c-1.524,1.178-2.257,2.585-2.257,4.238c0,0.704,0.308,1.728,0.926,2.981
			c0.153,0.425,0.461,0.985,0.867,1.718h-7.49C32.594,170.807,32.731,165.104,33.984,153.271z M41.187,175.113
			c0.461-0.445,1.061-0.927,1.931-1.489c0.422,0.504,0.789,0.91,1.021,1.217c0.716,0.965,1.276,2.065,1.777,3.331
			c0.213,0.57,0.366,0.956,0.386,1.204c0.115,0.301,0.134,0.697,0.134,1.257c0,0.832-0.232,1.583-0.693,2.238
			c-0.445,0.628-1.139,1.12-2.064,1.352c-0.291,0.078-0.543,0.117-0.736,0.117c-1.061,0-1.911-0.405-2.624-1.256
			c-0.674-0.812-1.041-1.891-1.041-3.223C39.275,178.036,39.93,176.456,41.187,175.113z"/>
		<path fill="#1D1D1B" d="M130.157,21.916l3.108-1.352l8.917,19.198l3.609,0.782l-9.901-21.197l4.921-2.124l-3.011-1.833
			l-10.713,4.768l0.134,0.04l-6.639,3.223l-2.045,1.217l-0.717,0.386l0.039,0.04l-11.584,6.976l-6.812,4.935l-0.039-0.029
			l-0.772,0.625l-1.004,0.688l0.098,0.039l-8.32,6.784c0,0-11.581,10.291-15.348,14.885c-2.276,2.798-9.515,11.021-9.515,11.021
			c-0.445,0.02-0.792,0.03-1.063,0.03c-0.985-0.01-2.006-0.104-3.03-0.288c-0.654-0.147-1.254-0.311-1.777-0.524
			c-0.52-0.219-1.021-0.53-1.6-0.975c-0.599-0.442-1.024-0.946-1.276-1.447c-0.288-0.5-0.405-1.06-0.288-1.639
			c0.06-0.579,0.232-1.083,0.54-1.469c0.232-0.268,0.501-0.5,0.851-0.655c0.075-0.078,0.212-0.137,0.405-0.193l-0.156-0.792
			c-0.674,0.039-1.158,0.075-1.545,0.193c-1.176,0.258-2.084,0.772-2.663,1.525c-0.693,0.847-0.907,1.688-0.619,2.549
			c0.272,0.877,0.891,1.659,1.777,2.343c0.965,0.772,2.084,1.227,3.282,1.479c1.217,0.193,3.01,0.432,5.291,0.654
			c0.308,0.059,0.753,0.098,1.233,0.128L53.83,86.757l-4.133,6.807l-1.004,2.114l-0.386,0.674h0.019l-5.614,11.99l-3.168,8.01H39.43
			l-0.716,2.025h0.077l-3.688,11.292l3.38-0.991l0.809-2.539l8.573,2.604c1.139-0.065,1.985-0.183,2.624-0.386
			c1.989-0.579,3.515-1.679,4.673-3.357c0.095-0.203,0.249-0.504,0.521-0.88c0.078-0.239,0.153-0.491,0.271-0.798
			c0.248-0.929,0.387-1.97,0.248-3.089c0-0.262-0.035-0.609-0.134-0.946l7.529,2.856l3.05-1.855
			c-0.367,0.331-0.678,0.726-0.926,1.197c-0.079,0.154-0.174,0.386-0.312,0.638c-0.461,1.1-0.579,2.172-0.308,3.193
			c0.115,0.302,0.252,0.688,0.54,1.188l3.204-1.796c-0.229-0.52-0.423-0.946-0.54-1.177c-0.269-0.868-0.269-1.66,0-2.334
			c0.078-0.078,0.193-0.321,0.405-0.608c0.56-0.648,1.257-0.792,2.163-0.396c0.792,0.307,1.391,0.926,1.757,1.796
			c0.426,0.886,0.481,1.92,0.135,3.125c-0.02,0.153-0.06,0.346-0.213,0.618c-0.308,0.772-1.004,1.564-1.911,2.366
			c-0.269,0.278-0.867,0.743-1.619,1.283c-0.772,0.54-1.545,1.08-2.376,1.564c-0.291,0.173-0.753,0.436-1.293,0.713l0.54,1.178
			c0.713-0.367,1.233-0.648,1.698-0.907c1.466-0.792,2.936-1.68,4.343-2.627c1.776-1.194,2.955-2.49,3.554-3.888
			c0.579-1.361,0.654-2.654,0.192-3.949c-0.311-1.011-1.118-1.774-2.297-2.268c-1.312-0.549-2.762-0.648-4.267-0.278
			c-0.985,0.249-1.832,0.704-2.471,1.35l-22.219-8.437l1.68-4.208l5.617-11.56l0.096-0.02l1.679-2.916l6.217,3.397l-5.405,11.188
			c-0.654,1.342-0.481,2.229,0.425,2.673c0.714,0.308,1.95,0.289,3.668-0.096c1.738-0.385,2.778-0.85,3.185-1.409
			c0.54-0.713,0.117-1.44-1.371-2.064l-1.986-0.946l3.897-8.033l10.271,5.618l3.321-1.437L54.91,90.678l10.521-15.916l6.835,4.604
			c-1.391,0.066-2.454,0.213-3.147,0.386c-2.277,0.55-3.881,1.515-4.866,2.876c-1.001,1.515-1.446,2.971-1.139,4.381
			c0.331,1.197,1.063,2.219,2.297,3.049c0.753,0.521,1.644,0.867,2.49,1.08c1.662,0.367,3.188,0.301,4.578-0.193
			c1.367-0.452,2.471-1.312,3.357-2.51c0.713-1,1.099-2.277,1.197-3.867c0.058-0.514,0.058-1.168,0-1.999l6.253,4.188l3.417-1.128
			L76.336,78.63c-0.056-0.946-0.095-1.699-0.056-2.258c0.02-1.59,0.327-2.758,0.887-3.521c0.678-0.995,1.431-1.564,2.239-1.728
			c0.771-0.138,1.524,0.036,2.241,0.56c0.654,0.421,1.253,1.099,1.812,1.986c0.366,0.56,0.752,1.524,1.237,2.84
			c0.153,0.347,0.347,0.887,0.56,1.561l3.089-0.684c-0.327-1.034-0.639-1.842-0.966-2.385c-0.831-1.728-1.737-2.952-2.762-3.803
			l-0.48-0.327c-1.604-1.08-3.381-1.544-5.312-1.371c-1.892,0.134-3.337,0.851-4.282,2.192c-0.426,0.625-0.773,1.629-1.025,2.971
			c-0.095,0.455-0.153,1.089-0.269,1.921l-6.157-4.169l14.031-15.657l12.722-11.714l3.9,4.669c-0.059,0-0.193,0-0.193,0
			c-1.659,0.134-2.781,0.56-3.608,1.312c-0.87,0.841-1.276,2.068-1.276,3.688c0,0.494,0.099,1.237,0.33,2.143
			c-1.257-0.134-2.241-0.173-2.954-0.098c-2.184,0.157-3.822,0.802-4.961,1.895c-0.232,0.219-0.56,0.595-1.024,1.174
			c-0.461,0.579-0.713,1.509-0.674,2.762c0.038,1.292,0.615,2.51,1.737,3.599c0.655,0.638,1.563,1.228,2.778,1.807
			c1.198,0.559,2.588,1.004,4.208,1.273c1.197,0.232,3.069,0.405,5.579,0.523c0.851,0.075,2.029,0.095,3.534,0.173l-0.04-1.525
			c-0.405,0-0.732,0-0.965,0c-1.545-0.069-2.664-0.137-3.321-0.193c-2.393-0.292-3.743-0.495-3.956-0.579
			c-1.892-0.426-3.455-1.188-4.535-2.242c-2.124-2.133-2.068-4.283,0.154-6.446c0.48-0.475,1.37-0.724,2.722-0.773
			c0.402-0.039,0.981,0,1.794,0.049l0.732,3.291l2.801-0.483c-0.192-0.877-0.347-1.574-0.444-2.084
			c-0.367-1.679-0.54-2.984-0.56-3.891c0-0.684,0.078-1.283,0.29-1.813c0.174-0.534,0.462-0.956,0.753-1.257
			c0.54-0.51,1.273-0.831,2.199-0.887c0.059,0,0.079,0,0.134,0l0.524,0.684c0.984,0.514,1.832,0.9,2.45,1.099
			c2.007,0.534,3.881,0.425,5.792-0.402c0.154-0.079,0.54-0.252,0.887-0.445c0.232-0.154,0.426-0.327,0.696-0.501
			c0.754-0.619,1.428-1.439,1.987-2.454c0.153-0.23,0.271-0.5,0.405-0.847l4.692,6.371l3.609,0.076l-13.881-18.897l3.648-2.569
			l11.119-6.679l0.079,0.049l2.99-1.554l3.341,6.174l-10.771,6.489c-1.273,0.782-1.679,1.58-1.179,2.411
			c0.483,0.713,1.485,1.332,3.128,1.931c1.659,0.579,2.818,0.772,3.494,0.53c0.849-0.356,0.849-1.178,0-2.54l-1.141-1.764
			l7.762-4.682l5.48,10.095l3.632,0.579l-11.158-20.546l3.551-1.845L130.157,21.916z M52.168,117.798
			c0.543,0.955,0.93,1.662,1.139,2.222c0.658,1.639,0.87,2.935,0.562,3.783c-0.443,1.465-1.39,2.297-2.819,2.49
			c-0.425,0.079-1.06,0-1.911-0.135l-8.937-2.722l1.892-5.851l0.039-0.026l1.254-3.089L52.168,117.798z M74.118,80.58
			c0.039,0.658,0.134,1.159,0.134,1.564c0,1.188-0.174,2.425-0.481,3.727c-0.117,0.559-0.271,0.985-0.386,1.234
			c-0.099,0.261-0.327,0.588-0.638,1.063c-0.481,0.674-1.139,1.188-1.872,1.466c-0.732,0.291-1.584,0.271-2.49-0.02
			c-0.291-0.115-0.54-0.212-0.638-0.288c-0.906-0.599-1.371-1.43-1.467-2.49c-0.098-1.064,0.253-2.134,1.061-3.243
			c1.044-1.509,2.51-2.455,4.326-2.867C72.266,80.619,73.113,80.57,74.118,80.58z M109.291,44.956
			c-0.118,1.07-0.232,1.891-0.331,2.421c-0.366,1.737-0.867,2.916-1.6,3.505c-1.198,0.936-2.471,1.168-3.803,0.588
			c-0.368-0.193-0.91-0.579-1.509-1.178l-5.945-7.025l4.847-3.871l0.039,0.029l2.778-1.95L109.291,44.956z"/>
		<path fill="#1D1D1B" d="M183.802,23.035l-6.1-5.995c3.05-1.08,5.213-3.135,4.52-6.525c-0.678-3.308-3.979-4.574-8.456-3.714
			c-2.452,0.461-4.365,1.099-6.139,1.417c-1.875,0.376-3.514,0.553-4.787,0.648l0.095,0.475l3.069,0.386
			c0.772,0.085,0.926,0.298,1.564,3.446l2.431,12.065c0.505,2.565,0.406,2.738-0.5,3.203l-2.471,1.381l0.075,0.451
			c1.623-0.451,3.593-0.955,5.291-1.273c1.233-0.242,3.551-0.52,5.075-0.654l-0.095-0.474l-2.896-0.396
			c-0.985-0.134-1.237-0.851-2.104-5.203l-0.752-3.812l2.624-0.5c2.683,2.317,6.544,5.981,9.479,9.188
			c0.847-0.242,1.679-0.475,2.51-0.619c0.792-0.154,1.619-0.242,2.432-0.347l-0.115-0.465
			C186.583,25.748,186.351,25.565,183.802,23.035z M173.707,16.936l-2.297,0.406l-1.659-8.322c0.983-0.193,2.045-0.425,3.125-0.634
			c3.206-0.589,5.54,0.268,6.139,3.193C179.731,15.257,176.91,16.308,173.707,16.936z"/>
		<path fill="#1D1D1B" d="M207.84,19.733h-0.505c-0.504,2.039-0.811,3.128-1.217,3.678c-0.347,0.376-0.831,0.475-4.594,0.648
			c-1.584,0.068-3.185,0.059-4.827,0.095c-0.134-1.427-0.347-2.981-0.405-4.575l-0.229-4.584l3.59-0.183
			c4.267-0.212,4.673-0.153,4.961,0.579l1.08,2.549h0.483c-0.137-1.469-0.23-2.752-0.288-4.113
			c-0.039-1.253-0.098-2.549-0.117-3.842l-0.484,0.02l-0.831,2.451c-0.189,0.743-0.615,0.861-4.862,1.024l-3.609,0.193l-0.213-4.179
			c-0.079-1.42-0.02-2.693,0-3.891c1.292-0.095,2.876-0.193,4.902-0.28c3.998-0.201,4.267-0.201,4.672,0.725l1.041,2.51l0.504-0.02
			c-0.099-0.782-0.189-1.951-0.229-2.471c-0.04-0.503-0.04-1.708-0.04-2.568c-3.05,0.272-6.335,0.58-9.614,0.743
			c-2.665,0.118-5.311,0.118-8.206,0.118v0.451l2.994,0.812c0.753,0.203,0.867,0.444,1.021,3.628l0.639,12.277
			c0.098,2.625,0,2.762-0.966,3.109l-2.624,1.023l0.02,0.462c2.471-0.252,5.808-0.521,8.877-0.655
			c1.95-0.138,7.317-0.232,9.149-0.177l-0.17-2.565C207.741,21.723,207.84,20.679,207.84,19.733z"/>
		<polygon fill="#1D1D1B" points="212.237,18.307 220.248,18.742 220.346,16.356 212.414,15.921 		"/>
		<path fill="#1D1D1B" d="M229.108,22.456c0.217-1.986,0.406-4.035,0.693-6.08c0.256-2.019,0.622-4.054,0.891-6.062
			c0.464-3.165,0.562-3.446,1.296-3.551l2.952-0.579l0.098-0.475c-1.741-0.085-3.495-0.164-5.196-0.376
			c-1.97-0.239-3.605-0.595-5.269-0.916l-0.059,0.455l2.802,1.312c0.614,0.291,0.614,0.56,0.268,3.707
			c-0.229,2.065-0.465,4.13-0.693,6.158c-0.27,1.996-0.636,4.035-0.891,6.08c-0.406,2.585-0.497,2.762-1.427,2.936l-2.762,0.501
			l-0.078,0.49c1.563,0.049,3.612,0.167,5.328,0.36c1.563,0.209,3.553,0.595,5.117,0.926l0.078-0.455l-2.546-1.225
			C228.899,25.257,228.802,25.064,229.108,22.456z"/>
		<path fill="#1D1D1B" d="M261.654,31.906c0.216-2.173,2.225-14.535,2.82-16.786c0.157-0.586,0.504-0.694,2.049-0.857l1.597-0.134
			l0.138-0.475c-2.298-0.48-4.517-1.004-6.506-1.495c-3.684,4.525-7.486,9.025-11.563,13.312
			c-0.923-5.697-1.812-11.401-2.356-17.104c-2.002-0.569-4.268-1.306-6.407-1.999l-0.098,0.455l1.701,1.194
			c0.615,0.406,0.733,0.832,0.536,1.411c-0.693,2.431-3.952,10.608-6.288,15.464c-0.445,1.061-0.654,1.175-1.951,1.273l-1.93,0.153
			l-0.138,0.465c1.374,0.212,2.683,0.441,3.959,0.782c1.485,0.412,2.86,0.916,4.247,1.456l0.158-0.455l-1.545-1.08
			c-0.89-0.579-1.106-0.956-0.89-1.698c0.595-2.202,3.9-11.253,5.575-15.455l0.059,0.01c1.028,6.728,2.147,13.445,2.742,20.317
			l0.426,0.118c4.208-5.308,8.437-10.213,13.128-15.638l0.111,0.049c-0.249,1.669-2.258,14.525-2.716,16.178
			c-0.117,0.278-0.543,0.628-1.819,0.694l-1.812,0.107l-0.079,0.462c1.525,0.291,3.148,0.599,4.752,1.004
			c1.563,0.446,3.128,0.995,4.613,1.544l0.113-0.464l-1.658-0.985C261.87,33.297,261.523,32.976,261.654,31.906z"/>
		<path fill="#1D1D1B" d="M286.137,21.049l-0.661-0.35c-5.059,4.392-12.003,9.787-17.893,14.712
			c-0.909,0.02-1.989-0.079-2.899-0.164l-0.209,0.432c1.197,0.445,2.435,0.89,3.593,1.411c1.25,0.638,2.389,1.351,3.567,2.064
			l0.215-0.461l-2.2-2.222c1.29-1.485,2.718-3.049,4.321-4.179c1.354,0.589,2.644,1.208,3.959,1.815
			c1.331,0.646,2.624,1.323,3.939,1.997c-0.02,1.119-0.464,4.46-0.772,5.906c-1.119-0.085-2.702-0.346-3.514-0.54l-0.254,0.445
			c1.472,0.559,2.897,1.079,4.324,1.776c1.662,0.789,3.227,1.698,4.811,2.634l0.209-0.435l-2.16-2.163
			C285.011,36.268,285.364,28.595,286.137,21.049z M282.118,34.658l-7.028-3.42l7.663-6.331L282.118,34.658z"/>
		<path fill="#1D1D1B" d="M307.307,50.024l2.416,0.376l0.268-0.376c-1.27-0.811-2.684-1.469-3.972-2.355
			c-1.354-0.906-2.604-2.009-3.959-2.985l-0.249,0.376l1.197,1.816c0.962,1.332,0.962,1.603,0.674,2.035l-2.84,3.969
			c-0.131,0.173-0.425,0.599-0.812,0.985c-1.197-0.321-2.369-0.929-3.586-1.738c-4.287-2.886-4.89-8.167-1.453-12.974
			c3.939-5.599,9.267-6.021,13.324-3.282c1.139,0.733,2.663,2.153,2.703,2.703c0.111,0.821-0.485,2.722-0.909,4.188l0.385,0.302
			c0.524-0.832,1.061-1.653,1.683-2.471c0.478-0.727,1.04-1.44,1.584-2.134c-1.067-1.09-2.262-2.084-3.822-3.128
			c-5.039-3.416-13.494-4.303-18.05,2.124c-3.75,5.212-2.336,11.659,4.188,16.041c1.931,1.306,4.634,2.463,5.982,2.876
			c0.287-0.54,0.598-1.041,0.792-1.342l3.068-4.264C306.346,50.158,306.613,49.965,307.307,50.024z"/>
		<path fill="#1D1D1B" d="M312,59.635c1.315-1.505,2.624-3.105,4.038-4.63c1.387-1.555,2.833-3.051,4.247-4.604
			c2.159-2.346,2.408-2.52,3.05-2.287l2.833,1.175l0.308-0.347c-1.406-1.031-2.794-2.006-4.07-3.135
			c-1.466-1.247-2.663-2.425-3.861-3.622l-0.327,0.368l1.544,2.587c0.387,0.589,0.21,0.812-1.832,3.263
			c-1.394,1.583-2.703,3.184-4.116,4.702c-1.349,1.551-2.834,3.076-4.188,4.604c-1.832,1.927-2.022,2.025-2.893,1.678l-2.547-1.083
			l-0.333,0.351c1.276,0.916,2.88,2.104,4.208,3.223c1.159,0.975,2.592,2.382,3.771,3.521l0.307-0.376l-1.427-2.362
			C310.246,61.876,310.285,61.624,312,59.635z"/>
		<path fill="#1D1D1B" d="M341.345,68.015c0.517-0.367,1.002-0.347,1.695,0.029l2.186,1.149l0.498-0.475
			c-1.159-1.05-2.338-2.094-3.377-3.232c-0.963-1.044-1.872-2.183-2.704-3.312l-0.366,0.32l0.891,2.278
			c0.308,1.001,0.269,1.387-0.367,2.084c-1.217,1.198-2.453,2.336-3.69,3.416l-6.23,5.52h-0.078l3.167-15.788
			c0.288-1.351,0.557-2.608,1.06-3.881c-0.811-0.658-1.622-1.322-2.276-2.075c-0.753-0.802-1.414-1.718-2.088-2.598l-0.347,0.301
			c0.504,1.05,0.968,2.094,1.296,3.184l-0.196,0.782l-5.15,4.48c-3.306,2.932-7.337,6.154-8.227,6.803
			c-0.288,0.164-0.694,0.164-1.178-0.085l-2.526-1.286l-0.327,0.337c1.1,0.985,2.179,1.97,3.2,3.053
			c0.988,1.1,1.95,2.333,2.898,3.511l0.348-0.288l-0.988-2.164c-0.461-0.916-0.405-1.253-0.072-1.708
			c0.419-0.51,5.478-5.068,8.913-8.069l2.86-2.559l0.06,0.059l-2.298,11.332c-0.831,3.822-1.544,7.624-2.454,11.391l0.544,0.598
			c2.872-2.636,5.824-5.231,6.91-6.187C334.435,73.613,339.178,69.792,341.345,68.015z"/>
		<path fill="#1D1D1B" d="M337.326,87.491c1.623-1.159,3.341-2.412,5.039-3.55c1.702-1.188,3.495-2.327,5.211-3.495
			c2.722-1.777,2.957-1.882,3.553-1.505l2.474,1.787l0.406-0.252c-1.1-1.342-2.225-2.634-3.207-4.005
			c-1.179-1.535-1.989-2.994-2.893-4.391l-0.348,0.258l0.845,2.906c0.235,0.648,0,0.822-2.604,2.712
			c-1.714,1.178-3.397,2.431-5.135,3.609c-1.718,1.188-3.473,2.317-5.232,3.465c-2.179,1.46-2.414,1.516-3.146,0.975l-2.259-1.621
			l-0.405,0.241c1.008,1.178,2.277,2.692,3.305,4.103c0.863,1.198,1.95,2.896,2.755,4.303l0.426-0.258l-0.812-2.674
			C335.01,89.229,335.147,89.016,337.326,87.491z"/>
		<path fill="#1D1D1B" d="M363.713,102.49c0.563-0.252,1.067-0.114,1.702,0.396l1.773,1.633l0.603-0.331
			c-0.87-1.292-1.741-2.546-2.455-3.917c-0.693-1.237-1.255-2.549-1.812-3.861l-0.426,0.232l0.229,2.392
			c0.157,1.082,0,1.439-0.805,1.97c-1.434,0.848-2.938,1.698-4.463,2.451l-7.396,3.9l-0.131-0.059l7.023-14.574
			c0.621-1.227,1.255-2.356,2.027-3.495c-0.635-0.828-1.218-1.679-1.733-2.566c-0.524-0.965-0.97-1.989-1.355-2.994l-0.386,0.203
			c0.216,1.129,0.366,2.231,0.444,3.406l-0.405,0.707l-6.1,3.154c-3.92,2.075-8.611,4.237-9.673,4.633
			c-0.308,0.118-0.733,0-1.139-0.327l-2.14-1.835l-0.426,0.232c0.87,1.227,1.695,2.441,2.396,3.688
			c0.693,1.361,1.309,2.752,1.965,4.139l0.405-0.238l-0.439-2.317c-0.235-1.014-0.098-1.341,0.347-1.681
			c0.556-0.413,6.564-3.63,10.635-5.77l3.455-1.757v0.046l-5.039,10.464c-1.733,3.524-3.377,7.025-5.229,10.471l0.366,0.746
			c3.534-1.895,7.042-3.737,8.318-4.413C355.626,106.312,361.168,103.698,363.713,102.49z"/>
		<path fill="#1D1D1B" d="M363.196,130.25l1.675,1.68l0.485-0.154c-0.576-1.391-1.293-2.742-1.833-4.152
			c-0.562-1.564-0.909-3.164-1.426-4.708l-0.485,0.153l-0.039,2.199c0,1.624-0.176,1.816-0.693,2.01l-4.673,1.622
			c-0.229,0.066-0.713,0.194-1.237,0.348c-0.791-0.985-1.426-2.144-1.892-3.475c-1.772-4.768,0.931-9.42,6.624-11.371
			c6.564-2.297,11.139,0.425,12.781,4.921c0.478,1.266,0.883,3.282,0.556,3.746c-0.425,0.694-2.009,1.931-3.239,2.877l0.17,0.425
			c0.91-0.341,1.832-0.717,2.781-1.044c0.871-0.268,1.715-0.54,2.565-0.831c-0.209-1.466-0.575-2.913-1.197-4.699
			c-2.062-5.658-8.396-11.188-15.923-8.56c-6.197,2.15-8.919,8.165-6.236,15.441c0.812,2.163,2.316,4.633,3.147,5.703
			c0.576-0.229,1.1-0.451,1.446-0.569l5.059-1.764C362.287,129.807,362.653,129.807,363.196,130.25z"/>
		<path fill="#1D1D1B" d="M363.02,150.595l6.505-0.887l0.445,2.975c0.563,4.08,0.563,4.456-0.135,4.842l-2.529,1.237l0.079,0.461
			c1.466-0.229,2.762-0.422,4.188-0.635c1.256-0.153,2.605-0.327,3.921-0.465l-0.06-0.461l-2.605-0.55
			c-0.83-0.166-0.929-0.552-1.484-4.604l-0.465-2.983l3.861-0.53c1.426-0.193,2.813-0.252,4.148-0.386l1.08,7.045
			c0.117,0.907,0.177,1.361-0.831,1.816l-2.409,1.168l0.072,0.471c0.97-0.183,2.029-0.327,2.919-0.471
			c0.831-0.089,1.676-0.185,2.467-0.262c-0.536-2.703-1.099-5.465-1.504-8.213c-0.387-2.732-0.654-5.475-0.963-8.465l-0.444,0.066
			l-0.544,2.954c-0.149,0.762-0.366,0.879-3.625,1.351l-12.493,1.718c-2.684,0.376-2.795,0.232-3.26-0.648l-1.295-2.47l-0.503,0.049
			c0.443,1.747,0.81,3.351,1.045,4.951c0.27,1.989,0.348,3.445,0.483,5.271l0.499-0.029l0.484-2.752
			C360.278,151.139,360.356,150.964,363.02,150.595z"/>
		<path fill="#1D1D1B" d="M382.077,162.757l-0.988,2.471c-0.366,0.956-1.06,1.083-3.977,1.12l-9.807,0.156
			c-5.346,0.095-7.467,3.57-7.375,8.472c0.078,5.069,2.605,8.243,9.404,8.227c6.217-0.039,9.07-0.137,11.04-0.118
			c0.714,0.02,1.061,0.475,1.446,1.4l0.583,1.456h0.497c-0.11-1.39-0.288-2.703-0.347-3.976c0-1.505,0.118-2.974,0.275-4.44
			l-0.523,0.02l-0.563,1.852c-0.308,0.929-0.556,1.469-1.191,1.544c-2.435,0.311-7.958,0.425-12.26,0.524
			c-4.192,0.036-6.431-2.088-6.542-5.639c-0.098-5.406,2.814-6.436,7.239-6.485c5.425-0.119,8.415-0.145,10.477-0.04
			c1.218,0.04,1.413,0.288,2.127,2.144l0.654,1.544h0.465c-0.157-1.797-0.366-3.574-0.366-5.347
			c-0.039-1.623,0.059-3.207,0.209-4.886H382.077z"/>
		<path fill="#1D1D1B" d="M376.802,188.817v0.484l2.782,1.011c1.197,0.445,1.335,0.802,1.335,5.9h-15.196
			c-1.754,0-2.683-0.039-3.187-0.272c-0.438-0.173-0.786-0.936-1.695-3.475h-0.505c0.138,1.584,0.276,3.089,0.276,5.183
			c0,2.114-0.139,3.601-0.276,5.207h0.505c0.909-2.588,1.257-3.315,1.695-3.499c0.504-0.212,1.433-0.288,3.187-0.288h15.196
			c0,5.095-0.138,5.461-1.335,5.926l-2.782,1.021v0.485h5.91c-0.099-2.972-0.288-5.887-0.288-8.852c0-2.961,0.189-5.876,0.288-8.832
			H376.802z"/>
		<path fill="#1D1D1B" d="M382.247,209.164l-0.981,2.454c-0.387,0.952-1.048,1.03-3.998,1.03h-9.804
			c-5.366,0-7.533,3.446-7.533,8.348c0,5.108,2.474,8.305,9.267,8.396c6.198,0.079,9.075,0,11.021,0.079
			c0.734,0,1.087,0.465,1.434,1.355l0.596,1.525h0.465c-0.099-1.356-0.288-2.704-0.288-3.98c0-1.515,0.189-2.95,0.288-4.456h-0.465
			l-0.596,1.93c-0.274,0.885-0.602,1.407-1.217,1.457c-2.415,0.277-7.951,0.316-12.238,0.316c-4.149,0-6.446-2.158-6.446-5.692
			c0-5.416,2.893-6.407,7.35-6.407c5.366,0,8.363,0,10.425,0.131c1.257,0.04,1.428,0.308,2.127,2.187l0.596,1.557h0.465
			c-0.099-1.783-0.288-3.567-0.288-5.366c0-1.597,0.189-3.171,0.288-4.862H382.247z"/>
		<path fill="#1D1D1B" d="M382.247,235.054l-0.981,2.863c-0.255,0.742-0.484,0.88-3.803,0.88h-12.592
			c-2.702,0-2.833-0.138-3.121-1.109l-0.909-2.634h-0.505c0.138,1.616,0.276,3.605,0.276,5.366c0,1.158-0.139,3.437-0.276,4.901
			h0.505l0.909-2.702c0.309-0.9,1.061-0.982,5.635-0.982h3.978v2.586c-2.78,2.14-7.281,5.169-11.026,7.316
			c0.039,0.854,0.138,1.715,0.138,2.526c0,0.752-0.099,1.593-0.138,2.336h0.505c0.287-1.853,0.575-2.039,3.611-4.009l7.141-4.666
			c0.541,3.1,2.219,5.527,5.772,5.527c3.495,0,5.347-2.902,5.347-7.393c0-2.392-0.288-4.332-0.288-6.122
			c0-1.822,0.189-3.436,0.288-4.686H382.247z M376.9,250.024c-3.861,0-4.346-2.93-4.346-6.081v-2.307h8.711
			c0,1.011,0.039,2.022,0.039,3.142C381.305,247.936,379.989,250.024,376.9,250.024z"/>
		<path fill="#1D1D1B" d="M382.247,259.153l-0.981,2.844c-0.255,0.791-0.484,0.851-3.803,0.851h-12.592
			c-2.702,0-2.833-0.111-3.121-1.061l-0.909-2.634h-0.505c0.138,2.442,0.276,5.684,0.276,8.694c0,1.91-0.139,7.156-0.276,8.9h2.625
			c1.086,0,2.107,0.138,3.089,0.205v-0.513c-2.003-0.573-3.16-0.939-3.685-1.355c-0.405-0.346-0.445-0.827-0.445-4.456
			c0-1.545,0.099-3.158,0.118-4.762c1.485-0.062,3.089-0.159,4.673-0.159h4.764v3.523c0,4.149-0.112,4.525-0.851,4.833l-2.644,0.871
			v0.465c1.452-0.069,2.801-0.069,4.208-0.069c1.315,0,2.611,0,3.979,0.069v-0.465l-2.491-0.871
			c-0.771-0.308-0.847-0.684-0.847-4.833v-3.523h4.283c1.471,0,2.76,0.098,3.977,0.159c0,1.276,0.099,2.841,0.099,4.771
			c0,3.931,0,4.218-0.97,4.545l-2.663,0.91v0.464c0.812-0.02,1.97-0.117,2.532-0.117c0.499,0,1.773,0.098,2.625,0.117
			c-0.099-2.978-0.288-6.158-0.288-9.414c0-2.564,0.189-5.209,0.288-7.99H382.247z"/>
		<path fill="#1D1D1B" d="M376.842,282.827c-6.545,0-6.1,10.618-11.08,10.618c-3.239,0-4.495-2.47-4.495-5.174
			c0-0.88,0.229-2.474,0.792-3.474l4.515-1.158v-0.485l-5.634-0.575c-0.812,1.96-1.009,3.396-1.009,5.029
			c0,6.675,3.515,8.913,6.505,8.913c7.24,0,5.812-10.654,11.336-10.654c2.315,0,4.031,1.98,4.031,4.14
			c0,1.14-0.249,2.264-0.714,3.422l-3.821,1.329v0.387l4.81,0.156c0.635-1.394,1.06-3.562,1.06-5.019
			C383.137,286.61,381.089,282.827,376.842,282.827z"/>
	</g>
	<g>
		<path fill="#1D1D1B" d="M77.767,313.036c7.297,0.334,14.495,0.681,21.792,0.681c7.298,0,14.5-0.347,21.816-0.681v13.871h-1.139
			l-2.568-6.476c-1.1-2.797-2.026-3.129-14.595-3.129v35.582c0,4.071,0.174,6.197,0.658,7.335c0.5,1.081,2.297,2.053,8.667,4.121
			v1.1c-3.959-0.317-7.646-0.645-12.84-0.645c-5.209,0-8.896,0.327-12.855,0.645v-1.1c6.43-2.068,8.262-3.04,8.647-4.121
			c0.543-1.138,0.678-3.264,0.678-7.335v-35.582c-12.549,0-13.455,0.332-14.574,3.129l-2.49,6.476h-1.197V313.036z"/>
		<path fill="#1D1D1B" d="M160.543,364.341l6.446-2.068c2.104-0.645,2.376-1.148,2.45-7.421c0.079-4.886,0.253-9.865,0.253-14.767
			c0-4.922-0.174-9.883-0.253-14.813c-0.173-7.637-0.231-8.296-1.832-8.812l-7.064-2.283v-1.14
			c4.034,0.334,8.184,0.681,12.856,0.681c4.169,0,8.279-0.347,12.431-0.681v1.14l-6.989,2.283c-1.619,0.517-1.698,1.176-1.832,8.812
			c-0.099,4.931-0.292,9.892-0.292,14.813c0,4.901,0.193,9.881,0.292,14.612c0.059,6.286,0.308,6.794,2.431,7.507l6.391,2.137v1.1
			c-3.88-0.317-8.763-0.645-12.431-0.645c-4.191,0-9.073,0.327-12.856,0.645V364.341z"/>
		<path fill="#1D1D1B" d="M228.474,350.797h1.237l2.813,10.605c2.514,1.345,6.446,1.849,8.554,1.849
			c6.754,0,12.821-2.918,12.821-10.523c0-11.583-26.217-10.614-26.217-25.99c0-9.84,9.377-14.663,18.415-14.663
			c3.534,0,8.9,1.08,12.415,2.585l-0.484,11.198h-0.93l-3.239-9.041c-2.879-1.058-5.622-1.555-8.475-1.555
			c-5.308,0-10.177,3.972-10.177,9.456c0,12.841,26.276,9.556,26.276,26.485c0,7.068-5.484,15.219-21.99,15.219
			c-4.011,0-7.624-0.487-12.414-2.229L228.474,350.797z"/>
		<path fill="#1D1D1B" d="M306.712,350.797h1.158l2.857,10.605c2.549,1.345,6.449,1.849,8.55,1.849
			c6.741,0,12.859-2.918,12.859-10.523c0-11.583-26.256-10.614-26.256-25.99c0-9.84,9.385-14.663,18.455-14.663
			c3.495,0,8.881,1.08,12.396,2.585l-0.505,11.198h-0.929L332,316.816c-2.821-1.058-5.576-1.555-8.456-1.555
			c-5.248,0-10.15,3.972-10.15,9.456c0,12.841,26.249,9.556,26.249,26.485c0,7.068-5.444,15.219-21.988,15.219
			c-4.032,0-7.586-0.468-12.389-2.229L306.712,350.797z"/>
	</g>
	<rect x="29.158" y="391.007" fill="#1D1D1B" width="353.246" height="5.493"/>
	<path fill-rule="evenodd" clip-rule="evenodd" fill="#006633" d="M337.194,174.243v0.137c-18.048,1.833-34.265,3.397-48.78,4.942
		c-5.718,0.599-17.683,2.545-24.869,0.114c-1.485-0.481-5.962-2.565-2.277-4.015h0.021l0.039-0.03
		c6.157-2.595,31.35-3.714,75.81-4.564C337.194,171.946,337.194,173.085,337.194,174.243L337.194,174.243L337.194,174.243z
		 M337.194,177.449c-21.504,1.679-39.226,3.705-53.84,6.254c-1.178,0.183-2.297,0.386-3.416,0.619
		c10.694,2.604,21.616,4.669,32.389,7.218c9.247,2.202,17.493,4.228,24.867,6.034V177.449L337.194,177.449z M78.634,196.713
		c8.86-5.049,18.899-7.664,28.628-10.54c16.371-5.252,5.405-7.199-16.04-26.658c-2.876-2.48-6.698-5.743-10.327-8.763
		c-1.43,7.307-2.202,14.843-2.261,22.526c0,0.331,0,0.658,0,0.965l0,0V196.713L78.634,196.713z M82.053,145.386
		c8.243,8.857,15.945,15.549,22.45,20.288c8.491,6.05,15.769,10.985,21.928,14.902c31.099,22.974,33.782,11.658,9.826-6.774
		c-11.158-9.306-24.516-15.396-39.747-23.573c-4.457-2.684-9.071-5.278-13.704-7.797C82.573,143.435,82.282,144.42,82.053,145.386
		L82.053,145.386z M83.846,138.763c0.678-2.163,1.371-4.322,2.124-6.466c10.638,2.788,27.143,7.644,41.178,11.986
		C151.122,169.871,118.151,160.46,83.846,138.763L83.846,138.763z M87.533,128.243c11.486,3.301,22.199,6.456,33.069,9.479
		c-6.469-6.063-15.252-13.533-26.871-22.617C91.435,119.342,89.369,123.743,87.533,128.243L87.533,128.243z M95.682,111.698
		c0.386-0.654,0.828-1.312,1.194-1.96c7.974,3.05,15.444,7.317,22.395,12.133l0.038,0.039c9.769,6.466,18.26,14.055,24.902,21.986
		c-5.311-1.253-10.464-2.585-15.52-3.936c-0.351-0.347-0.657-0.688-0.984-1.064C117.975,128.899,107.206,119.748,95.682,111.698
		L95.682,111.698z M98.479,107.192c0.945-1.459,1.911-2.915,2.915-4.345c3.531,2.5,8.551,5.648,10.906,6.45
		c17.064,6.957,24.477,2.441,24.247,2.536c0.134,0.311,0.615,1.123,0.654,1.334c1.604,5.076,16.391,30.828-1.582,16.476l0,0
		l-0.037-0.01c-0.753-0.599-1.525-1.256-2.317-1.97c-4.093-3.252-9.712-7.258-15.811-11.041
		C111.182,112.856,104.657,109.519,98.479,107.192L98.479,107.192z M102.32,101.544c14.094,9.113,18.357-0.271,12.393-14.613
		C110.236,91.496,106.084,96.352,102.32,101.544L102.32,101.544z M115.988,85.659c2.625-2.589,5.387-5.04,8.224-7.376
		c1.1,2.163,3.302,6.486,3.9,8.03c16.214,33.128-6.024,23.399-10.677,21.698C122.782,103.08,118.979,91.015,115.988,85.659
		L115.988,85.659z M126.237,76.644c0.213-0.173,0.444-0.347,0.678-0.521c8.108,5.694,26.966,32.045,45.905,45.788
		c13.105,27.025,4.823,27.712-13.629,25.481l0,0c-0.465-0.115-0.89-0.223-1.352-0.288c-8.167-16.053-15.945-33.514-21.292-47.198
		l-1.256-3.207C132.899,90.541,129.271,82.812,126.237,76.644L126.237,76.644z M129.464,74.134
		c7.14,6.282,23.432,25.026,37.971,37.372c-2.801-5.134-6.119-10.965-10.039-17.565c-4.169-7.569-10.521-18.495-16.198-27.588
		C137.146,68.718,133.266,71.353,129.464,74.134L129.464,74.134z M144.346,64.559c2.644,4.634,15.252,25.347,28.53,48.704
		c1.604,2.797,5.348,6.436,9.673,8.376c3.802,1.584,6.988,1.796,9.286-0.036c0.654-0.37,1.233-0.93,1.698-1.643
		c-8.36-13.145-22.064-29.842-43.53-58.337C148.091,62.55,146.179,63.535,144.346,64.559L144.346,64.559z M152.88,60.272
		c6.6-3.05,13.53-5.52,20.693-7.47c5.52,6.872,10.653,13.55,15.134,19.43c-5.04,2.248-13.688,0.619-26.446-5.475
		C158.881,65.119,155.657,62.822,152.88,60.272L152.88,60.272z M179.228,51.431c4.267-0.975,8.628-1.718,13.089-2.218
		c0.078,0.366,0.232,0.811,0.347,1.391c0.831,2.565,1.119,5.288,1.351,7.817c0.445,5.223-0.288,9.129-2.411,11.62
		C188.223,65.911,184.152,59.867,179.228,51.431L179.228,51.431z M195.85,48.856c3.125-0.281,6.237-0.475,9.438-0.504
		c1.832,7.346,4.097,32.732-5.576,28.851C198.899,67.511,198.068,57.812,195.85,48.856L195.85,48.856z M209.266,48.323l0.099,0.821
		v0.029c0.092,2.016,0.17,4.46,0.21,7.218l0,0c0.098,32.258,11.079,104.108,12.643,31.815l0.852-39.063
		C218.533,48.653,213.938,48.352,209.266,48.323L209.266,48.323z M226,49.51c2.572,0.366,5.156,0.782,7.703,1.293
		c-2.16,8.06-3.456,16.36-4.595,24.74C226.291,74.229,225.097,67.495,226,49.51L226,49.51z M235.811,51.218
		c-2.01,7.673-3.011,13.292-2.959,17.376c-0.038,0.327-0.038,0.654,0,1.04l0,0c0.06,1.921,0.544,3.475,1.336,4.712
		c0.851-0.52,1.753-1.158,2.702-1.855l0,0c7.082-5.026,14.496-9.457,22.159-13.645l0.308-0.192
		C251.831,55.485,243.972,52.976,235.811,51.218L235.811,51.218z M264.01,60.737c3.341,1.564,6.644,3.282,9.83,5.134
		c-1.198,1.06-2.958,2.375-4.962,3.534c-8.592,5.154-19.246,8.377-26.373,8.396c-0.883,0-1.714-0.059-2.506-0.154
		c0,0-0.04,0-0.079-0.039c-0.078,0-0.156-0.01-0.196-0.02h-0.072c-0.039,0-0.098-0.02-0.157-0.02
		c-0.753-0.134-1.505-0.366-2.119-0.618C244.207,68.457,256.117,63.614,264.01,60.737L264.01,60.737z M276.346,67.376
		c-4.633,4.336-12.545,8.321-23.899,11.698c-0.387,0.134-0.793,0.252-1.139,0.337l-0.112,0.069h-0.039
		c-6.099,1.787-11.314,3.243-15.673,6.852c-2.187,1.807-4.909,5.697-6.524,11.101c-2.704,10.136-2.265,18.398,7.892,12.953
		c1.931-1.158,4.031-2.624,6.237-4.247c13.436-10.055,33.317-29.574,38.376-35.5C279.782,69.52,278.087,68.42,276.346,67.376
		L276.346,67.376z M284.979,73.089c-6.95,5.58-16.662,15.851-31.434,28.727c-0.844,0.713-1.654,1.437-2.506,2.124l-0.098,0.144
		c-0.151,0.049-0.19,0.164-0.288,0.259c-3.724,3.196-7.416,6.39-10.851,9.401l0,0c-10.386,10.366-3.606,20.742,13.514,9.855
		c5.89-4.332,11.97-11.07,17.623-18.107l0,0v-0.008c2.455-3.062,4.812-6.122,7.068-9.074c6.159-7.683,11.198-13.553,14.726-17.192
		C290.285,77.088,287.642,75.04,284.979,73.089L284.979,73.089z M294.991,81.122c3.71,3.319,7.264,6.893,10.602,10.586
		c-1.08,0.579-2.971,1.535-5.176,2.713c-13.279,6.41-33.26,15.019-11.002-7.932C291.038,84.847,292.93,83.05,294.991,81.122
		L294.991,81.122z M307,93.302c1.178,1.43,2.316,2.856,3.455,4.287c-2.912,2.025-5.732,3.936-8.436,5.703
		c-35.496,25.876-54.534,24.515-28.18,6.253c6.446-4.466,14.188-7.267,21.308-10.644C300.671,96.283,304.703,94.441,307,93.302
		L307,93.302z M312.523,100.252c2.101,2.847,4.13,5.772,5.981,8.763c-1.675,1.678-5.229,4.846-9.725,8.331
		c-12.645,9.737-25.405,17.673-47.552,17.237c-2.041-0.04-3.16-0.511,0-2.143l0.426-0.252l0.039-0.01l0,0
		c9.188-4.669,18.108-10.229,28.396-16.505C297.465,110.851,305.03,105.713,312.523,100.252L312.523,100.252z M320.049,111.525
		c-2.813,2.202-5.595,4.421-8.337,6.708c-15.327,12.944-14.98,14.122,0.543,12.395c5.327-0.608,10.675-1.652,15.903-2.647
		C325.841,122.297,323.158,116.796,320.049,111.525L320.049,111.525z M329.218,130.732c-29.979,6.1-61.575,6.777-84.317,15.164
		c-1.198,0.472-2.396,0.896-3.534,1.38c-0.099,0.03-0.19,0.085-0.269,0.154c-4.228,1.95-7.474,4.342-9.81,7.199
		c-8.066,10.91,4.522,23.648,20.752,15.118c0.059-0.088,0.157-0.137,0.256-0.157c17.486-10.481,44.573-20.51,79.704-30.693
		C331.169,136.138,330.284,133.426,329.218,130.732L329.218,130.732z M333.021,142.372c0.405,1.623,0.812,3.226,1.139,4.866
		c-12.932,7.673-23.626,14.98-29.188,18.52c-5.367,3.465-9.941,3.465-17.003,3.603c-10.216,0.115-15.196-0.356-13.377-3.252
		C277.387,161.446,296.346,153.471,333.021,142.372L333.021,142.372z M334.84,150.193c1.06,5.52,1.793,11.138,2.14,16.891
		c-8.259,0.481-14.672,0.634-18.919,0.386l0,0c-2.389-0.118-7.351-0.619-4.496-3.826c0.233-0.219,0.444-0.461,0.732-0.713
		C320.147,157.689,328.001,154.148,334.84,150.193L334.84,150.193z M179.96,126.446c4.326,8.253,8.476,16.623,12.049,24.519l0,0
		c3.01,6.947,7.258,15.219,7.159,3.947C198.262,141.351,192.896,133.347,179.96,126.446L179.96,126.446z M183.994,187.931
		c2.684-1.08-5.248-17.663-15.692-25.713l0,0c-1.273-0.975-2.605-1.911-3.996-2.817c2.045,3.743,4.035,7.277,6.024,10.56
		c1.561,2.624,2.971,5.219,4.438,7.837C178.533,184.322,182.297,188.144,183.994,187.931L183.994,187.931z M150.02,151.737
		c4.653,7.064,7.82,14.283,9.034,21.174v0.01c1.084,5.317,0.426,8.609-3.648,2.5l0,0l0,0c-0.54-0.792-1.079-1.699-1.754-2.789
		c-2.84-4.548-7.489-11.43-14.538-20.821c-1.371-1.738-2.837-3.436-4.283-5.134C141.276,148.743,146.701,150.53,150.02,151.737
		L150.02,151.737z M200.867,90.154c5.349,10.707,9.982,25.212,4.321,25.792c-0.634-4.179-1.309-7.936-2.08-11.371
		C202.087,99.941,201.426,95.118,200.867,90.154L200.867,90.154z M196.062,111.391c1.292-12.896-3.167-33.099-12.297-34.767
		c-0.753-0.193-1.564-0.367-2.415-0.541c-5.288-1.227-15.114-3.628-23.317-8.436c8.743,11.967,18.511,25.036,27.68,34.361
		C189.807,106.11,193.223,109.188,196.062,111.391z"/>
</g>
</svg>
